<svg width="20" height="11" viewBox="0 0 20 11" fill="none" xmlns="http://www.w3.org/2000/svg">
    <path d="M4.44603 6.87193L4.91306 7.0505L4.91306 7.0505L4.44603 6.87193ZM2.7935 10.204C2.90615 10.4561 3.20186 10.5691 3.45398 10.4565L7.56252 8.62076C7.81464 8.50811 7.9277 8.21241 7.81505 7.96029C7.7024 7.70817 7.4067 7.59511 7.15458 7.70776L3.50254 9.33952L1.87078 5.68748C1.75813 5.43536 1.46243 5.3223 1.21031 5.43495C0.958187 5.5476 0.845124 5.8433 0.957773 6.09542L2.7935 10.204ZM3.979 6.69336L2.78298 9.82142L3.71703 10.1786L4.91306 7.0505L3.979 6.69336ZM18.904 4.70541C14.9008 -0.784665 6.4056 0.346865 3.979 6.69336L4.91306 7.0505C7.05642 1.44477 14.5601 0.445314 18.096 5.29459L18.904 4.70541Z" fill="black"/>
</svg>
