<svg width="28" height="28" viewBox="0 0 28 28" fill="none" xmlns="http://www.w3.org/2000/svg">
<path d="M4.34261 20.6039L4.80964 20.7825L4.34261 20.6039ZM3.5435 21.704C3.65615 21.9561 3.95185 22.0692 4.20397 21.9565L8.31251 20.1208C8.56463 20.0081 8.6777 19.7124 8.56505 19.4603C8.4524 19.2082 8.15669 19.0951 7.90457 19.2078L4.25254 20.8395L2.62078 17.1875C2.50813 16.9354 2.21242 16.8223 1.9603 16.935C1.70818 17.0476 1.59512 17.3433 1.70777 17.5954L3.5435 21.704ZM3.87559 20.4254L3.53298 21.3214L4.46703 21.6786L4.80964 20.7825L3.87559 20.4254ZM27.145 9.02149C17.5978 6.1284 7.43835 11.1074 3.87559 20.4254L4.80964 20.7825C8.18499 11.9547 17.81 7.23762 26.855 9.97851L27.145 9.02149Z" fill="black"/>
</svg>
