<svg width="21" height="12" viewBox="0 0 21 12" fill="none" xmlns="http://www.w3.org/2000/svg">
    <path d="M4.39671 8.06551L4.8546 8.26634L4.8546 8.26634L4.39671 8.06551ZM2.53422 11.4318C2.63461 11.689 2.92453 11.8162 3.18178 11.7158L7.37388 10.0798C7.63112 9.97945 7.75828 9.68953 7.65789 9.43228C7.5575 9.17503 7.26758 9.04787 7.01033 9.14826L3.28402 10.6024L1.82985 6.87613C1.72946 6.61888 1.43954 6.49172 1.18229 6.59211C0.925044 6.6925 0.797885 6.98242 0.898275 7.23967L2.53422 11.4318ZM3.93881 7.86468L2.54211 11.0492L3.4579 11.4508L4.8546 8.26634L3.93881 7.86468ZM20.4569 1.54482C14.1518 -1.32113 6.72067 1.52205 3.93881 7.86468L4.8546 8.26634C7.41254 2.43424 14.2455 -0.180074 20.0431 2.45519L20.4569 1.54482Z" fill="black"/>
</svg>
