<svg width="16" height="16" viewBox="0 0 16 16" xmlns="http://www.w3.org/2000/svg">
    <path d="M3.74018 8.65986C3.74018 8.16653 3.86685 7.71986 4.12018 7.31986C4.38685 6.91986 4.74685 6.61986 5.20018 6.41986C4.66685 6.23319 3.95351 6.11986 3.06018 6.07986C3.11351 5.26653 3.34685 4.55319 3.76018 3.93986C4.17351 3.31319 4.73351 2.83319 5.44018 2.49986C6.14685 2.15319 6.95351 1.97986 7.86018 1.97986C9.18018 1.97986 10.2402 2.34653 11.0402 3.07986C11.8402 3.81319 12.2402 4.79319 12.2402 6.01986V13.6999H10.5402V6.17986C10.5402 5.31319 10.2868 4.62653 9.78018 4.11986C9.27351 3.61319 8.58685 3.35986 7.72018 3.35986C7.01351 3.35986 6.38685 3.52653 5.84018 3.85986C5.30685 4.17986 4.93351 4.61986 4.72018 5.17986C5.20018 5.23319 5.65351 5.35319 6.08018 5.53986C6.50685 5.72653 6.83351 5.93986 7.06018 6.17986V6.53986C6.55351 6.68653 6.15351 6.94653 5.86018 7.31986C5.58018 7.67986 5.44018 8.10652 5.44018 8.59986V13.6999H3.74018V8.65986Z"/>
</svg>
